<?xml version="1.0" standalone="no"?>
<!DOCTYPE svg PUBLIC "-//W3C//DTD SVG 20010904//EN"
 "http://www.w3.org/TR/2001/REC-SVG-20010904/DTD/svg10.dtd">
<svg version="1.0" xmlns="http://www.w3.org/2000/svg"
 width="1024.000000pt" height="1024.000000pt" viewBox="0 0 1024.000000 1024.000000"
 preserveAspectRatio="xMidYMid meet">

<g transform="translate(0.000000,1024.000000) scale(0.100000,-0.100000)"
fill="#000000" stroke="none">
<path d="M4385 7984 c-267 -29 -471 -82 -655 -170 -262 -126 -423 -256 -589
-476 -153 -202 -291 -512 -291 -653 0 -56 18 -92 66 -135 37 -32 38 -32 123
-28 104 6 249 58 486 173 97 47 176 79 220 88 l70 14 7 -66 c8 -82 63 -398 75
-430 9 -21 -4 -36 -142 -166 -168 -159 -235 -229 -345 -360 -147 -175 -193
-253 -212 -363 -11 -68 -11 -70 19 -123 44 -78 93 -103 193 -95 89 6 451 90
600 139 118 38 109 24 95 142 l-7 61 54 26 c29 15 586 339 1238 721 l1185 695
28 -16 c16 -10 62 -50 103 -89 41 -40 78 -73 82 -73 32 2 303 251 386 354 167
209 196 263 196 362 0 87 -34 135 -124 175 -98 43 -291 24 -786 -80 -129 -27
-289 -67 -355 -89 l-120 -40 -40 37 c-53 49 -164 110 -360 197 -260 116 -550
209 -780 249 -89 16 -343 27 -420 19z m-231 -354 c31 -27 59 -50 62 -50 2 0
30 14 61 30 55 30 86 36 117 24 24 -9 20 -31 -24 -111 l-41 -74 57 -59 57 -60
-18 -26 c-17 -26 -19 -27 -93 -20 -85 7 -83 8 -127 -81 -28 -56 -46 -68 -77
-52 -22 12 -48 66 -48 102 0 33 -18 47 -61 47 -52 0 -85 15 -92 41 -8 31 5 52
64 95 l51 37 -7 84 c-6 73 -4 87 11 104 26 29 46 24 108 -31z m1196 -127 c76
-79 137 -168 155 -227 7 -22 25 -67 39 -100 49 -110 33 -137 -121 -214 -54
-28 -148 -80 -207 -116 -60 -36 -119 -66 -132 -66 -36 0 -68 42 -197 260 -70
119 -108 201 -114 248 -4 37 -4 37 79 88 147 91 361 193 408 194 17 0 43 -19
90 -67z m429 -24 c23 -29 41 -56 41 -60 0 -13 -228 -119 -255 -119 -18 0 -25
8 -33 39 -19 77 9 119 113 167 73 35 87 32 134 -27z m-979 -502 c19 -34 36
-67 38 -72 1 -6 -32 -34 -75 -62 -175 -114 -401 -265 -453 -301 -131 -93 -202
-135 -209 -123 -4 6 -13 41 -21 78 l-13 67 38 33 c108 93 625 442 655 443 3 0
21 -28 40 -63z"/>
<path d="M6372 6835 c-68 -40 -120 -75 -115 -78 4 -3 35 -20 68 -38 33 -18 78
-44 100 -59 56 -38 156 -146 189 -203 41 -69 76 -175 76 -230 l0 -48 -31 36
c-88 100 -221 96 -288 -10 -76 -119 -28 -280 88 -299 72 -11 117 2 173 52 l50
46 -7 -43 c-9 -57 -50 -155 -85 -207 -16 -23 -53 -63 -81 -88 -51 -46 -136
-102 -144 -95 -8 9 -36 171 -32 184 10 24 -13 85 -39 102 -30 19 -68 7 -79
-26 -7 -24 -67 -36 -160 -34 -33 1 -65 -3 -72 -9 -16 -13 -17 -100 -1 -116 8
-8 46 -12 104 -12 l92 0 22 -54 c12 -29 30 -63 41 -74 10 -12 19 -23 19 -25 0
-6 -95 -46 -149 -63 -129 -40 -589 -43 -766 -5 -98 20 -237 73 -301 113 -119
76 -229 194 -263 284 -10 25 -22 45 -27 45 -17 0 -204 -113 -204 -123 0 -18
113 -172 173 -234 52 -55 60 -70 76 -135 27 -108 56 -166 178 -349 180 -271
191 -290 259 -423 71 -140 133 -315 158 -446 21 -111 21 -377 1 -497 -25 -139
-66 -246 -180 -467 -86 -166 -115 -213 -154 -250 -155 -145 -361 -215 -596
-204 -340 16 -591 159 -750 426 -128 215 -156 433 -87 683 43 155 115 273 243
394 116 109 219 173 364 226 147 54 192 67 276 78 46 6 86 13 88 15 2 2 -13
30 -32 62 -19 32 -46 80 -58 106 l-24 48 -50 -6 c-197 -27 -412 -112 -566
-226 -103 -76 -282 -254 -331 -329 -86 -132 -152 -295 -184 -449 -24 -123 -16
-324 20 -446 28 -95 95 -240 156 -334 153 -237 384 -388 723 -472 103 -26 331
-36 435 -20 102 16 283 75 369 121 105 56 436 276 539 358 206 164 401 423
493 655 66 166 99 413 81 612 -26 291 -113 517 -314 813 -31 46 -56 89 -56 96
0 10 23 14 88 15 178 3 347 48 525 138 164 83 283 194 383 358 108 176 138
276 138 470 0 115 -3 139 -27 208 -35 100 -88 207 -142 282 -48 67 -171 192
-227 230 -20 13 -38 29 -40 34 -1 5 -58 -24 -126 -64z m-1157 -1605 c72 -24
125 -34 190 -38 89 -4 90 -5 111 -37 l22 -33 -137 -27 c-75 -15 -148 -30 -162
-32 -24 -4 -31 3 -76 79 -72 119 -78 132 -62 126 8 -3 59 -20 114 -38z m485
-357 c11 -26 32 -61 45 -79 l24 -32 -77 -20 c-158 -43 -236 -62 -247 -62 -13
0 -99 149 -91 157 6 6 292 81 313 82 7 1 21 -20 33 -46z m186 -370 c3 -21 12
-66 19 -100 7 -35 10 -63 6 -63 -3 0 -76 -9 -161 -20 -85 -11 -156 -20 -157
-20 -1 0 -10 26 -19 58 -9 31 -23 69 -30 84 l-14 27 93 21 c96 22 223 47 244
49 7 1 15 -16 19 -36z m53 -480 c-4 -43 -10 -92 -14 -109 l-5 -31 -92 -7 c-50
-3 -116 -6 -146 -6 l-54 0 6 31 c3 17 6 64 6 104 l0 72 113 10 c61 5 130 11
152 11 l41 2 -7 -77z m-89 -394 c0 -16 -68 -126 -102 -165 -29 -33 -29 -33
-101 -27 -40 3 -76 9 -80 13 -5 4 1 38 12 75 12 37 21 78 21 91 l0 24 125 0
c86 0 125 -4 125 -11z m-335 -410 l45 -11 -48 -48 c-26 -26 -57 -53 -70 -59
-21 -11 -22 -11 -16 16 3 15 10 43 16 60 5 18 7 37 3 43 -8 13 15 13 70 -1z"/>
<path d="M5499 6170 c-134 -71 -159 -250 -49 -357 68 -67 163 -70 255 -10 108
73 132 191 58 299 -53 78 -183 111 -264 68z"/>
<path d="M4295 5619 c-118 -70 -116 -63 -55 -206 86 -202 186 -374 301 -519
132 -166 274 -414 331 -578 30 -86 38 -317 13 -402 -26 -93 -81 -198 -128
-246 -89 -92 -267 -156 -358 -129 -50 15 -113 104 -112 157 2 73 98 184 198
230 57 27 183 54 246 54 24 0 39 5 40 13 3 30 -3 213 -8 220 -8 13 -151 8
-231 -9 -181 -37 -378 -181 -457 -334 -46 -89 -58 -219 -28 -306 36 -107 95
-172 203 -223 68 -32 85 -35 180 -39 221 -8 377 65 512 240 149 193 218 364
218 544 0 150 -31 262 -130 469 -78 165 -137 260 -275 445 -171 231 -247 367
-311 563 -21 64 -41 117 -44 116 -3 0 -50 -27 -105 -60z"/>
<path d="M2711 4907 c-38 -19 -66 -64 -66 -105 0 -53 35 -96 103 -128 182 -85
201 -213 81 -560 l-62 -179 0 -130 c-1 -110 3 -140 22 -195 58 -164 183 -311
351 -410 76 -46 124 -59 133 -37 7 19 -19 169 -38 213 -8 19 -38 61 -67 94
-114 129 -156 235 -146 367 3 38 13 87 23 111 15 36 21 42 39 36 11 -4 23 -11
24 -15 2 -5 10 -9 18 -9 8 0 14 -4 14 -9 0 -5 18 -13 41 -19 32 -8 41 -7 45 3
3 8 0 60 -6 117 -6 57 -15 186 -20 288 -7 162 -11 195 -35 263 -43 123 -124
211 -259 282 -73 38 -148 47 -195 22z"/>
<path d="M6200 4790 c-14 -3 -24 -13 -23 -21 2 -19 73 -192 83 -202 4 -5 40
-13 79 -18 139 -17 310 -86 454 -182 111 -74 188 -150 259 -258 127 -191 160
-296 161 -499 1 -126 -1 -141 -32 -235 -64 -193 -139 -311 -285 -444 -71 -64
-112 -92 -200 -136 -214 -105 -326 -129 -591 -129 -221 0 -361 23 -451 75 -28
16 -60 29 -70 29 -11 0 -55 -29 -99 -63 -44 -35 -110 -84 -146 -109 l-67 -45
58 0 c40 -1 96 -14 191 -46 190 -65 350 -90 564 -90 114 0 202 5 268 16 103
18 304 79 404 123 167 74 415 295 510 454 71 121 85 150 131 282 114 326 72
624 -132 931 -135 204 -269 322 -481 427 -192 94 -308 127 -510 143 -27 2 -61
1 -75 -3z"/>
<path d="M4215 4447 l-26 -22 20 -56 c16 -43 29 -60 55 -74 29 -16 38 -17 65
-5 18 7 39 26 47 41 13 26 13 32 -2 62 -9 17 -26 42 -37 55 -28 30 -87 30
-122 -1z"/>
<path d="M6320 4174 c0 -22 -3 -75 -6 -119 l-7 -81 42 -18 c85 -39 181 -175
181 -260 0 -50 -61 -167 -107 -205 -46 -38 -149 -71 -223 -71 l-59 0 -41 -72
c-22 -40 -55 -95 -72 -121 -17 -26 -27 -51 -23 -55 4 -4 52 -7 108 -6 115 1
261 34 356 81 69 33 192 150 231 218 89 155 93 321 13 479 -38 75 -149 179
-237 220 -41 20 -93 38 -115 42 l-41 7 0 -39z"/>
<path d="M3721 3954 c-35 -53 -39 -98 -15 -133 24 -33 103 -81 135 -81 37 0
86 44 100 89 23 77 -46 160 -141 169 l-49 4 -30 -48z"/>
<path d="M6813 3455 c-33 -23 -63 -79 -63 -116 0 -84 108 -174 185 -155 65 16
118 99 100 155 -25 80 -168 155 -222 116z"/>
<path d="M4326 3211 c-9 -10 -22 -42 -28 -72 -9 -44 -9 -60 3 -83 19 -40 58
-66 107 -73 41 -6 102 11 102 28 0 4 28 6 63 2 62 -5 64 -5 91 28 25 29 28 39
24 88 -6 71 -22 83 -113 80 -38 -1 -83 3 -98 10 -46 18 -131 14 -151 -8z"/>
<path d="M6313 3139 c-43 -12 -57 -41 -50 -101 12 -100 76 -153 152 -128 99
33 114 157 26 219 -31 22 -74 26 -128 10z"/>
</g>
</svg>
